<?xml version="1.0" encoding="utf-8"?>
<!-- Generator: Adobe Illustrator 22.0.1, SVG Export Plug-In . SVG Version: 6.00 Build 0)  -->
<svg version="1.1"
	 id="svg2985" inkscape:version="0.48.2 r9819" sodipodi:docname="2014_Jeep_Warranty.pdf" xmlns:cc="http://creativecommons.org/ns#" xmlns:dc="http://purl.org/dc/elements/1.1/" xmlns:inkscape="http://www.inkscape.org/namespaces/inkscape" xmlns:rdf="http://www.w3.org/1999/02/22-rdf-syntax-ns#" xmlns:sodipodi="http://sodipodi.sourceforge.net/DTD/sodipodi-0.dtd" xmlns:svg="http://www.w3.org/2000/svg"
	 xmlns="http://www.w3.org/2000/svg" xmlns:xlink="http://www.w3.org/1999/xlink" x="0px" y="0px" viewBox="0 0 100 40" width="100" height="40"
	 style="enable-background:new 0 0 100 40;" xml:space="preserve">
<style type="text/css">
	.jeep{fill:#FFFFFF;}
</style>
<g>
	<path class="jeep" d="M100,21.1c0-9.3-5.9-11.9-9.7-11.9c-3.8,0-5.5,2.1-5.6,2.2c-0.5,0.6-1.2,1.3-1.2-0.3c0-0.8,0-1.2,0-1.2h-7.6
		V40h7.7c0,0,0-7.7,0-8.3c0-0.6,0.6-0.5,1.1,0c0.4,0.5,2.4,1.8,5.7,1.8C96.5,33.5,100,28.3,100,21.1z M88,28.2
		c-3.7,0-4.7-2.4-4.6-6.8c0.1-4.5,1.9-6.3,4.2-6.3c3.9,0,4.6,3,4.6,6C92.2,24.2,91.7,28.2,88,28.2z"/>
	<path class="jeep" d="M17.4,21.5c0,2.8-1.9,4.5-4.8,4.5c-3,0-4.6-2.2-4.6-4.6c0-2.4,0-3.8,0-3.8H0v3.9c0,4,1.2,11.2,12.6,11.2
		c11.4,0,13-7.7,13-11.4c0-3.7,0-21.4,0-21.4h-8.2C17.4,0,17.4,18.7,17.4,21.5z"/>
	<path class="jeep" d="M37.8,8.9C30.4,8.9,27,15.8,27,21.6c0,5.9,3.8,11.6,11.5,11.6c6.8,0.1,11.3-4.3,11.3-7.5h-7.5
		c0,0-0.9,2.1-3.5,2.1c-2.6,0-4.1-1.5-4.1-5.1h15.2C49.9,11.4,44.3,8.9,37.8,8.9z M34.9,18.1c0-2.4,1-4.3,3.7-4.3
		c2.8,0,4.1,2.1,4.1,4.3H34.9z"/>
	<path class="jeep" d="M62.2,8.9c-7.5,0-10.8,6.8-10.8,12.7c0,5.9,3.8,11.6,11.5,11.6c6.8,0.1,11.3-4.3,11.3-7.5h-7.5
		c0,0-0.9,2.1-3.5,2.1c-2.6,0-4.1-1.5-4.1-5.1h15.2C74.3,11.4,68.6,8.9,62.2,8.9z M59.3,18.1c0-2.4,1-4.3,3.7-4.3
		c2.8,0,4.1,2.1,4.1,4.3H59.3z"/>
	<path class="jeep" d="M97.2,34c-1.3,0-2.4,1.1-2.4,2.4s1.1,2.4,2.4,2.4c1.3,0,2.4-1.1,2.4-2.4S98.5,34,97.2,34z M97.2,38.6
		c-1.2,0-2.2-1-2.2-2.2c0-1.2,1-2.2,2.2-2.2c1.2,0,2.2,1,2.2,2.2C99.4,37.6,98.4,38.6,97.2,38.6z"/>
	<path class="jeep" d="M97.9,36.2c0.1-0.1,0.2-0.3,0.2-0.5c0-0.4-0.3-0.7-0.8-0.7h-1v2.6h0.3v-1.1h0.7l0.5,1.1h0.3l-0.5-1.2
		C97.8,36.4,97.9,36.3,97.9,36.2z M97.3,36.2h-0.7v-0.9h0.7c0.3,0,0.5,0.2,0.5,0.4C97.8,36.1,97.6,36.2,97.3,36.2z"/>
</g>
</svg>
