<?xml version="1.0" encoding="utf-8"?>
<!-- Generator: Adobe Illustrator 22.0.1, SVG Export Plug-In . SVG Version: 6.00 Build 0)  -->
<svg version="1.1" id="Layer_1" xmlns="http://www.w3.org/2000/svg" xmlns:xlink="http://www.w3.org/1999/xlink" x="0px" y="0px"
	 viewBox="0 0 149.3 69.5" style="enable-background:new 0 0 149.3 69.5;" xml:space="preserve">
<style type="text/css">
	.st0{fill:none;stroke:#000000;stroke-width:6;stroke-miterlimit:10;}
	.st1{fill:none;stroke:#FBB03B;stroke-width:6;stroke-miterlimit:10;}
	.st2{font-family:'MyriadPro-Regular';}
	.st3{font-size:13px;}
</style>
<path class="st0" d="M19.8,51.5c0-22.1,17.9-40.8,40-40.8s40,18.7,40,40.8"/>
<path class="st0" d="M100.1,51V36.7c0-3.7,3.1-6.1,6.8-6.1h0c3.7,0,6.8,2.4,6.8,6.1V51"/>
<path class="st0" d="M113.7,50.9V36.6c0-3.7,3.1-6.1,6.8-6.1h0c3.7,0,6.8,2.4,6.8,6.1v14.3"/>
<polyline class="st1" points="49.4,31.9 55.5,47.8 60,31.9 64.6,47.8 69.4,31.9 "/>
<text transform="matrix(1 0 0 1 71.0832 49.8332)" class="st2 st3">isDo</text>
</svg>
